<svg xmlns="http://www.w3.org/2000/svg" width="1440" height="501" fill="none"><path fill="#131313" d="M0 0h1440v501H0z"/><mask id="a" width="1440" height="501" x="0" y="0" maskUnits="userSpaceOnUse" style="mask-type:luminance"><path fill="#fff" d="M0 0h1440v501H0z"/></mask><g mask="url(#a)" opacity=".5"><ellipse cx="381.484" cy="238.683" stroke="url(#b)" rx="381.484" ry="238.683" transform="matrix(-.98593 -.18803 .1936 -.97721 399.909 554.881)"/><ellipse cx="369.227" cy="230.614" stroke="url(#c)" rx="369.227" ry="230.614" transform="matrix(-.99606 -.12 .12376 -.98894 409.339 522.66)"/><ellipse cx="356.893" cy="222.576" stroke="url(#d)" rx="356.893" ry="222.576" transform="matrix(-1.00143 -.0515 .05319 -.99574 415.747 490.567)"/><ellipse cx="344.931" cy="214.851" stroke="url(#e)" rx="344.931" ry="214.851" transform="matrix(-1.00205 .01716 -.01775 -.99757 419.792 459.552)"/><ellipse cx="332.484" cy="206.904" stroke="url(#f)" rx="332.484" ry="206.904" transform="matrix(-.99793 .08566 -.08867 -.9944 420.612 428.882)"/><ellipse cx="319.961" cy="198.985" stroke="url(#g)" rx="319.961" ry="198.985" transform="matrix(-.9891 .1537 -.1592 -.98623 418.721 399.039)"/><ellipse cx="307.397" cy="191.112" stroke="url(#h)" rx="307.397" ry="191.112" transform="matrix(-.97561 .221 -.22897 -.97309 414.294 370.262)"/><ellipse cx="295.189" cy="183.525" stroke="url(#i)" rx="295.189" ry="183.525" transform="matrix(-.95752 .28723 -.2976 -.95505 408.05 343.264)"/><ellipse cx="282.544" cy="175.724" stroke="url(#j)" rx="282.544" ry="175.724" transform="matrix(-.93492 .35212 -.36471 -.9322 399.151 317.557)"/><ellipse cx="269.815" cy="167.919" stroke="url(#k)" rx="269.815" ry="167.919" transform="matrix(-.90789 .41537 -.42996 -.90468 388.156 293.401)"/><ellipse cx="257.099" cy="160.161" stroke="url(#l)" rx="257.099" ry="160.161" transform="matrix(-.87655 .47672 -.493 -.87263 375.377 270.995)"/><ellipse cx="244.736" cy="152.651" stroke="url(#m)" rx="244.736" ry="152.651" transform="matrix(-.84103 .53587 -.5535 -.83625 361.519 250.824)"/><ellipse cx="231.999" cy="144.927" stroke="url(#n)" rx="231.999" ry="144.927" transform="matrix(-.80146 .59256 -.61115 -.79573 345.829 232.614)"/><ellipse cx="219.181" cy="137.16" stroke="url(#o)" rx="219.181" ry="137.16" transform="matrix(-.75802 .64651 -.66566 -.75131 328.844 216.409)"/><ellipse cx="206.434" cy="129.437" stroke="url(#p)" rx="206.434" ry="129.437" transform="matrix(-.71088 .69748 -.71676 -.70325 310.983 202.324)"/><ellipse cx="194.04" cy="121.924" stroke="url(#q)" rx="194.04" ry="121.924" transform="matrix(-.66024 .7452 -.76422 -.6518 292.88 190.643)"/><ellipse cx="181.337" cy="114.197" stroke="url(#r)" rx="181.337" ry="114.197" transform="matrix(-.6063 .78943 -.80781 -.59725 273.904 181.255)"/><ellipse cx="168.55" cy="106.391" stroke="url(#s)" rx="168.55" ry="106.391" transform="matrix(-.54932 .82994 -.84734 -.5399 254.521 174.025)"/><ellipse cx="156.29" cy="98.884" stroke="url(#t)" rx="156.29" ry="98.884" transform="matrix(-.48954 .8665 -.88265 -.48004 235.742 169.131)"/><ellipse cx="143.595" cy="91.064" stroke="url(#u)" rx="143.595" ry="91.064" transform="matrix(-.42723 .89893 -.91358 -.41798 216.629 166.562)"/><ellipse cx="130.961" cy="83.242" stroke="url(#v)" rx="130.961" ry="83.242" transform="matrix(-.36269 .92702 -.94003 -.35404 197.942 166.039)"/><ellipse cx="118.729" cy="75.63" stroke="url(#w)" rx="118.729" ry="75.63" transform="matrix(-.29621 .9506 -.9619 -.28854 180.298 167.611)"/><ellipse cx="105.809" cy="67.537" stroke="url(#x)" rx="105.809" ry="67.537" transform="matrix(-.22814 .96953 -.9791 -.22178 162.702 171.247)"/><ellipse cx="93.57" cy="59.836" stroke="url(#y)" rx="93.57" ry="59.836" transform="matrix(-.1588 .98368 -.99159 -.1541 146.743 176.445)"/><ellipse cx="81.17" cy="51.99" stroke="url(#z)" rx="81.17" ry="51.99" transform="matrix(-.08854 .99296 -.99934 -.08578 131.812 183.554)"/><ellipse cx="68.595" cy="43.996" stroke="url(#A)" rx="68.595" ry="43.996" transform="matrix(-.01774 .99728 -1.00234 -.01717 118.041 192.241)"/><ellipse cx="56.575" cy="36.326" stroke="url(#B)" rx="56.575" ry="36.326" transform="matrix(.05323 .99661 -1.00058 .05145 106.224 202.235)"/><ellipse cx="44.126" cy="28.355" stroke="url(#C)" rx="44.126" ry="28.355" transform="matrix(.12401 .99094 -.9941 .11976 95.735 213.84)"/><ellipse cx="31.709" cy="20.386" stroke="url(#D)" rx="31.709" ry="20.386" transform="matrix(.1942 .98027 -.98294 .18746 87 226.429)"/><ellipse cx="19.464" cy="12.623" stroke="url(#E)" rx="19.464" ry="12.623" transform="matrix(.26345 .96467 -.96714 .25426 80.354 239.989)"/></g><defs><radialGradient id="b" cx="0" cy="0" r="1" gradientTransform="matrix(161.236 0 0 100.88 391.194 238.683)" gradientUnits="userSpaceOnUse"><stop stop-color="#fff"/><stop offset="1" stop-color="#fff" stop-opacity=".165"/></radialGradient><radialGradient id="c" cx="0" cy="0" r="1" gradientTransform="matrix(156.055 0 0 97.4697 378.625 230.614)" gradientUnits="userSpaceOnUse"><stop stop-color="#fff"/><stop offset="1" stop-color="#fff" stop-opacity=".165"/></radialGradient><radialGradient id="d" cx="0" cy="0" r="1" gradientTransform="matrix(150.842 0 0 94.0726 365.976 222.576)" gradientUnits="userSpaceOnUse"><stop stop-color="#fff"/><stop offset="1" stop-color="#fff" stop-opacity=".165"/></radialGradient><radialGradient id="e" cx="0" cy="0" r="1" gradientTransform="matrix(145.786 0 0 90.8077 353.71 214.851)" gradientUnits="userSpaceOnUse"><stop stop-color="#fff"/><stop offset="1" stop-color="#fff" stop-opacity=".165"/></radialGradient><radialGradient id="f" cx="0" cy="0" r="1" gradientTransform="matrix(140.525 0 0 87.4486 340.946 206.904)" gradientUnits="userSpaceOnUse"><stop stop-color="#fff"/><stop offset="1" stop-color="#fff" stop-opacity=".165"/></radialGradient><radialGradient id="g" cx="0" cy="0" r="1" gradientTransform="matrix(135.233 0 0 84.1018 328.105 198.985)" gradientUnits="userSpaceOnUse"><stop stop-color="#fff"/><stop offset="1" stop-color="#fff" stop-opacity=".165"/></radialGradient><radialGradient id="h" cx="0" cy="0" r="1" gradientTransform="matrix(129.923 0 0 80.7743 315.221 191.112)" gradientUnits="userSpaceOnUse"><stop stop-color="#fff"/><stop offset="1" stop-color="#fff" stop-opacity=".165"/></radialGradient><radialGradient id="i" cx="0" cy="0" r="1" gradientTransform="matrix(124.763 0 0 77.5675 302.702 183.525)" gradientUnits="userSpaceOnUse"><stop stop-color="#fff"/><stop offset="1" stop-color="#fff" stop-opacity=".165"/></radialGradient><radialGradient id="j" cx="0" cy="0" r="1" gradientTransform="matrix(119.418 0 0 74.2703 289.735 175.724)" gradientUnits="userSpaceOnUse"><stop stop-color="#fff"/><stop offset="1" stop-color="#fff" stop-opacity=".165"/></radialGradient><radialGradient id="k" cx="0" cy="0" r="1" gradientTransform="matrix(114.038 0 0 70.9715 276.683 167.919)" gradientUnits="userSpaceOnUse"><stop stop-color="#fff"/><stop offset="1" stop-color="#fff" stop-opacity=".165"/></radialGradient><radialGradient id="l" cx="0" cy="0" r="1" gradientTransform="matrix(108.664 0 0 67.6924 263.643 160.161)" gradientUnits="userSpaceOnUse"><stop stop-color="#fff"/><stop offset="1" stop-color="#fff" stop-opacity=".165"/></radialGradient><radialGradient id="m" cx="0" cy="0" r="1" gradientTransform="matrix(103.438 0 0 64.5184 250.965 152.651)" gradientUnits="userSpaceOnUse"><stop stop-color="#fff"/><stop offset="1" stop-color="#fff" stop-opacity=".165"/></radialGradient><radialGradient id="n" cx="0" cy="0" r="1" gradientTransform="matrix(98.0553 0 0 61.2539 237.904 144.927)" gradientUnits="userSpaceOnUse"><stop stop-color="#fff"/><stop offset="1" stop-color="#fff" stop-opacity=".165"/></radialGradient><radialGradient id="o" cx="0" cy="0" r="1" gradientTransform="matrix(92.6375 0 0 57.9714 224.759 137.16)" gradientUnits="userSpaceOnUse"><stop stop-color="#fff"/><stop offset="1" stop-color="#fff" stop-opacity=".165"/></radialGradient><radialGradient id="p" cx="0" cy="0" r="1" gradientTransform="matrix(87.2503 0 0 54.707 211.689 129.437)" gradientUnits="userSpaceOnUse"><stop stop-color="#fff"/><stop offset="1" stop-color="#fff" stop-opacity=".165"/></radialGradient><radialGradient id="q" cx="0" cy="0" r="1" gradientTransform="matrix(82.0119 0 0 51.5316 198.979 121.924)" gradientUnits="userSpaceOnUse"><stop stop-color="#fff"/><stop offset="1" stop-color="#fff" stop-opacity=".165"/></radialGradient><radialGradient id="r" cx="0" cy="0" r="1" gradientTransform="matrix(76.6426 0 0 48.2658 185.952 114.197)" gradientUnits="userSpaceOnUse"><stop stop-color="#fff"/><stop offset="1" stop-color="#fff" stop-opacity=".165"/></radialGradient><radialGradient id="s" cx="0" cy="0" r="1" gradientTransform="matrix(71.2384 0 0 44.9666 172.84 106.391)" gradientUnits="userSpaceOnUse"><stop stop-color="#fff"/><stop offset="1" stop-color="#fff" stop-opacity=".165"/></radialGradient><radialGradient id="t" cx="0" cy="0" r="1" gradientTransform="matrix(66.0566 0 0 41.7938 160.268 98.884)" gradientUnits="userSpaceOnUse"><stop stop-color="#fff"/><stop offset="1" stop-color="#fff" stop-opacity=".165"/></radialGradient><radialGradient id="u" cx="0" cy="0" r="1" gradientTransform="matrix(60.6907 0 0 38.4886 147.249 91.064)" gradientUnits="userSpaceOnUse"><stop stop-color="#fff"/><stop offset="1" stop-color="#fff" stop-opacity=".165"/></radialGradient><radialGradient id="v" cx="0" cy="0" r="1" gradientTransform="matrix(55.3512 0 0 35.1823 134.294 83.242)" gradientUnits="userSpaceOnUse"><stop stop-color="#fff"/><stop offset="1" stop-color="#fff" stop-opacity=".165"/></radialGradient><radialGradient id="w" cx="0" cy="0" r="1" gradientTransform="matrix(50.181 0 0 31.9654 121.75 75.63)" gradientUnits="userSpaceOnUse"><stop stop-color="#fff"/><stop offset="1" stop-color="#fff" stop-opacity=".165"/></radialGradient><radialGradient id="x" cx="0" cy="0" r="1" gradientTransform="matrix(44.7205 0 0 28.5448 108.502 67.537)" gradientUnits="userSpaceOnUse"><stop stop-color="#fff"/><stop offset="1" stop-color="#fff" stop-opacity=".165"/></radialGradient><radialGradient id="y" cx="0" cy="0" r="1" gradientTransform="matrix(39.5478 0 0 25.2897 95.952 59.836)" gradientUnits="userSpaceOnUse"><stop stop-color="#fff"/><stop offset="1" stop-color="#fff" stop-opacity=".165"/></radialGradient><radialGradient id="z" cx="0" cy="0" r="1" gradientTransform="matrix(34.3068 0 0 21.9738 83.236 51.99)" gradientUnits="userSpaceOnUse"><stop stop-color="#fff"/><stop offset="1" stop-color="#fff" stop-opacity=".165"/></radialGradient><radialGradient id="A" cx="0" cy="0" r="1" gradientTransform="matrix(28.992 0 0 18.595 70.341 43.996)" gradientUnits="userSpaceOnUse"><stop stop-color="#fff"/><stop offset="1" stop-color="#fff" stop-opacity=".165"/></radialGradient><radialGradient id="B" cx="0" cy="0" r="1" gradientTransform="matrix(23.9117 0 0 15.3533 58.015 36.326)" gradientUnits="userSpaceOnUse"><stop stop-color="#fff"/><stop offset="1" stop-color="#fff" stop-opacity=".165"/></radialGradient><radialGradient id="C" cx="0" cy="0" r="1" gradientTransform="matrix(18.65 0 0 11.9843 45.25 28.355)" gradientUnits="userSpaceOnUse"><stop stop-color="#fff"/><stop offset="1" stop-color="#fff" stop-opacity=".165"/></radialGradient><radialGradient id="D" cx="0" cy="0" r="1" gradientTransform="matrix(13.402 0 0 8.61602 32.516 20.386)" gradientUnits="userSpaceOnUse"><stop stop-color="#fff"/><stop offset="1" stop-color="#fff" stop-opacity=".165"/></radialGradient><radialGradient id="E" cx="0" cy="0" r="1" gradientTransform="matrix(8.2265 0 0 5.33516 19.96 12.623)" gradientUnits="userSpaceOnUse"><stop stop-color="#fff"/><stop offset="1" stop-color="#fff" stop-opacity=".165"/></radialGradient></defs></svg>